<svg width="175" height="31" viewBox="0 0 175 31" fill="none" xmlns="http://www.w3.org/2000/svg">
<path d="M2.19505 30.4452C1.63949 30.4452 1.19505 30.3186 0.861718 30.0653C0.528385 29.812 0.333941 29.4743 0.278385 29.0521C0.22283 28.63 0.306163 28.1515 0.528385 27.6168L11.82 1.94973C12.0978 1.27428 12.445 0.795837 12.8617 0.5144C13.3061 0.232963 13.7923 0.092245 14.32 0.092245C14.82 0.092245 15.2784 0.232963 15.695 0.5144C16.1395 0.795837 16.5006 1.27428 16.7784 1.94973L28.07 27.6168C28.32 28.1515 28.4172 28.644 28.3617 29.0943C28.3061 29.5165 28.1256 29.8542 27.82 30.1075C27.5145 30.3327 27.0839 30.4452 26.5284 30.4452C25.9172 30.4452 25.4311 30.2904 25.07 29.9809C24.7089 29.6713 24.3895 29.1928 24.1117 28.5455L21.195 21.7066L23.1534 22.8887H5.40338L7.32004 21.7066L4.44505 28.5455C4.16727 29.221 3.86171 29.7135 3.52838 30.0231C3.19505 30.3045 2.7506 30.4452 2.19505 30.4452ZM14.2367 5.24254L7.94504 20.3557L6.90338 19.3425H21.6117L20.6534 20.3557L14.32 5.24254H14.2367Z" fill="#6D47F1"/>
<path d="M38.292 30.5297C36.1253 30.5297 34.4865 29.8964 33.3753 28.63C32.292 27.3354 31.7503 25.4779 31.7503 23.0575V2.24524C31.7503 1.54165 31.9309 1.00691 32.292 0.641045C32.6531 0.275178 33.167 0.092245 33.8337 0.092245C34.5003 0.092245 35.0142 0.275178 35.3753 0.641045C35.7642 1.00691 35.9587 1.54165 35.9587 2.24524V22.8042C35.9587 24.2114 36.2364 25.2668 36.792 25.9704C37.3753 26.6458 38.2087 26.9836 39.292 26.9836C39.542 26.9836 39.7642 26.9836 39.9587 26.9836C40.1531 26.9554 40.3476 26.9273 40.542 26.8991C40.8753 26.871 41.1114 26.9695 41.2503 27.1946C41.3892 27.3916 41.4587 27.8138 41.4587 28.4611C41.4587 29.0521 41.3337 29.5165 41.0837 29.8542C40.8337 30.1638 40.4309 30.3608 39.8753 30.4452C39.6253 30.4734 39.3614 30.4875 39.0837 30.4875C38.8059 30.5156 38.542 30.5297 38.292 30.5297Z" fill="#6D47F1"/>
<path d="M46.6201 30.4452C45.9534 30.4452 45.4257 30.2623 45.0368 29.8964C44.6757 29.5024 44.4951 28.9677 44.4951 28.2922V12.8413H42.1618C41.634 12.8413 41.2173 12.7006 40.9118 12.4192C40.6062 12.1096 40.4535 11.7015 40.4535 11.1949C40.4535 10.6602 40.6062 10.2521 40.9118 9.97069C41.2173 9.68925 41.634 9.54853 42.1618 9.54853H45.7034L44.4951 10.6884V9.16859C44.4951 6.38236 45.1757 4.28566 46.5368 2.87847C47.8979 1.44314 49.884 0.598831 52.4951 0.345537L53.7868 0.261107C54.259 0.204819 54.634 0.275178 54.9118 0.472185C55.1895 0.66919 55.3701 0.922483 55.4534 1.23206C55.5368 1.54164 55.5368 1.8653 55.4534 2.20302C55.3979 2.5126 55.259 2.79404 55.0368 3.04733C54.8145 3.30063 54.5368 3.44135 54.2034 3.46949L53.4118 3.5117C51.7729 3.65242 50.5784 4.13087 49.8284 4.94704C49.0784 5.73506 48.7034 6.94524 48.7034 8.57757V10.224L48.1201 9.54853H52.7451C53.3284 9.54853 53.759 9.68925 54.0368 9.97069C54.3423 10.2521 54.4951 10.6602 54.4951 11.1949C54.4951 11.7015 54.3423 12.1096 54.0368 12.4192C53.759 12.7006 53.3284 12.8413 52.7451 12.8413H48.7034V28.2922C48.7034 29.7276 48.009 30.4452 46.6201 30.4452Z" fill="#6D47F1"/>
<path d="M63.195 30.5297C61.7783 30.5297 60.5005 30.2482 59.3616 29.6854C58.2505 29.1225 57.3755 28.3626 56.7366 27.4057C56.0977 26.4488 55.7783 25.3653 55.7783 24.1551C55.7783 22.6354 56.1533 21.4393 56.9033 20.5668C57.6811 19.6662 58.945 19.033 60.695 18.6671C62.4727 18.2731 64.8616 18.0761 67.8616 18.0761H69.8199V20.6934H67.9033C65.9033 20.6934 64.32 20.7919 63.1533 20.989C61.9866 21.186 61.1533 21.5237 60.6533 22.0021C60.1811 22.4524 59.945 23.0857 59.945 23.9018C59.945 24.9713 60.3061 25.8437 61.0283 26.5192C61.7505 27.1665 62.7505 27.4902 64.0283 27.4902C65.0561 27.4902 65.9588 27.2509 66.7366 26.7725C67.5144 26.2659 68.1255 25.5904 68.5699 24.7461C69.0422 23.9018 69.2783 22.9309 69.2783 21.8333V16.9785C69.2783 15.3743 68.945 14.2204 68.2783 13.5168C67.6116 12.8132 66.5144 12.4614 64.9866 12.4614C64.0977 12.4614 63.1672 12.574 62.195 12.7991C61.2505 13.0243 60.2644 13.4042 59.2366 13.939C58.7644 14.1641 58.3616 14.2345 58.0283 14.15C57.695 14.0656 57.4311 13.8827 57.2366 13.6012C57.0422 13.2916 56.9311 12.968 56.9033 12.6303C56.9033 12.2644 56.9866 11.9126 57.1533 11.5749C57.3477 11.2372 57.6672 10.9839 58.1116 10.815C59.3339 10.224 60.5422 9.80183 61.7366 9.54853C62.9311 9.29524 64.0561 9.16859 65.1116 9.16859C66.9727 9.16859 68.5005 9.4641 69.6949 10.0551C70.9172 10.6461 71.82 11.5467 72.4033 12.7569C72.9866 13.9671 73.2783 15.5291 73.2783 17.4428V28.2922C73.2783 28.9677 73.1116 29.5024 72.7783 29.8964C72.4449 30.2623 71.9588 30.4452 71.32 30.4452C70.7088 30.4452 70.2227 30.2623 69.8616 29.8964C69.5005 29.5024 69.32 28.9677 69.32 28.2922V25.5482H69.6949C69.4727 26.5896 69.0561 27.4901 68.445 28.25C67.8616 28.9818 67.1255 29.5446 66.2366 29.9387C65.3477 30.3327 64.3338 30.5297 63.195 30.5297Z" fill="#6D47F1"/>
<path d="M91.8661 30.5297C88.8939 30.5297 86.3523 29.9105 84.2412 28.6722C82.13 27.4339 80.5051 25.6749 79.3662 23.3952C78.2551 21.0875 77.6995 18.3716 77.6995 15.2476C77.6995 12.9117 78.0189 10.815 78.6578 8.95751C79.2967 7.07189 80.2134 5.46769 81.4078 4.14494C82.63 2.79404 84.1162 1.76679 85.8662 1.0632C87.6439 0.359609 89.6439 0.0078125 91.8661 0.0078125C93.505 0.0078125 95.0745 0.232962 96.5745 0.683263C98.1022 1.13356 99.4217 1.78087 100.533 2.62518C101.005 2.93476 101.311 3.3147 101.449 3.765C101.616 4.18716 101.644 4.59524 101.533 4.98925C101.449 5.38326 101.269 5.72099 100.991 6.00242C100.713 6.25572 100.352 6.39644 99.9078 6.42458C99.4911 6.45272 99.0328 6.29793 98.5328 5.96021C97.6161 5.25662 96.6023 4.73596 95.4911 4.39823C94.38 4.06051 93.2134 3.89164 91.9911 3.89164C89.88 3.89164 88.1023 4.34194 86.6578 5.24254C85.2134 6.115 84.1162 7.39554 83.3662 9.08416C82.6162 10.7728 82.2412 12.8273 82.2412 15.2476C82.2412 17.668 82.6162 19.7366 83.3662 21.4533C84.1162 23.1419 85.2134 24.4366 86.6578 25.3372C88.1023 26.2096 89.88 26.6458 91.9911 26.6458C93.2134 26.6458 94.38 26.477 95.4911 26.1393C96.63 25.7734 97.6995 25.2387 98.6995 24.5351C99.1995 24.2255 99.6439 24.0848 100.033 24.1129C100.449 24.141 100.797 24.2818 101.074 24.5351C101.352 24.7884 101.533 25.112 101.616 25.506C101.727 25.8719 101.713 26.2659 101.574 26.6881C101.463 27.0821 101.199 27.4198 100.783 27.7012C99.6439 28.63 98.2967 29.3336 96.7411 29.812C95.1856 30.2905 93.5606 30.5297 91.8661 30.5297Z" fill="#6D47F1"/>
<path d="M112.107 30.5297C109.94 30.5297 108.301 29.8964 107.19 28.63C106.107 27.3354 105.565 25.4779 105.565 23.0575V2.24524C105.565 1.54165 105.746 1.00691 106.107 0.641045C106.468 0.275178 106.982 0.092245 107.649 0.092245C108.315 0.092245 108.829 0.275178 109.19 0.641045C109.579 1.00691 109.774 1.54165 109.774 2.24524V22.8042C109.774 24.2114 110.051 25.2668 110.607 25.9704C111.19 26.6458 112.024 26.9836 113.107 26.9836C113.357 26.9836 113.579 26.9836 113.774 26.9836C113.968 26.9554 114.163 26.9273 114.357 26.8991C114.69 26.871 114.926 26.9695 115.065 27.1946C115.204 27.3916 115.274 27.8138 115.274 28.4611C115.274 29.0521 115.149 29.5165 114.899 29.8542C114.649 30.1638 114.246 30.3608 113.69 30.4452C113.44 30.4734 113.176 30.4875 112.899 30.4875C112.621 30.5156 112.357 30.5297 112.107 30.5297Z" fill="#6D47F1"/>
<path d="M119.551 30.403C118.885 30.403 118.371 30.206 118.01 29.812C117.649 29.3899 117.468 28.8129 117.468 28.0812V11.6171C117.468 10.8854 117.649 10.3225 118.01 9.92847C118.371 9.53446 118.885 9.33745 119.551 9.33745C120.218 9.33745 120.732 9.53446 121.093 9.92847C121.482 10.3225 121.676 10.8854 121.676 11.6171V28.0812C121.676 28.8129 121.496 29.3899 121.135 29.812C120.774 30.206 120.246 30.403 119.551 30.403ZM119.551 4.94704C118.718 4.94704 118.065 4.73596 117.593 4.3138C117.149 3.89165 116.926 3.30063 116.926 2.54075C116.926 1.75272 117.149 1.1617 117.593 0.767693C118.065 0.345538 118.718 0.13446 119.551 0.13446C120.385 0.13446 121.024 0.345538 121.468 0.767693C121.94 1.1617 122.176 1.75272 122.176 2.54075C122.176 3.30063 121.94 3.89165 121.468 4.3138C121.024 4.73596 120.385 4.94704 119.551 4.94704Z" fill="#6D47F1"/>
<path d="M128.85 30.4452C128.183 30.4452 127.669 30.2623 127.308 29.8964C126.947 29.5024 126.766 28.9677 126.766 28.2922V11.406C126.766 10.7024 126.947 10.1677 127.308 9.80183C127.669 9.43596 128.169 9.25302 128.808 9.25302C129.475 9.25302 129.975 9.43596 130.308 9.80183C130.669 10.1677 130.85 10.7024 130.85 11.406V14.6988L130.391 13.939C131.003 12.3629 131.961 11.1809 133.266 10.3928C134.572 9.57668 136.072 9.16859 137.766 9.16859C139.378 9.16859 140.711 9.47817 141.766 10.0973C142.85 10.6884 143.655 11.603 144.183 12.8413C144.711 14.0515 144.975 15.5854 144.975 17.4428V28.2922C144.975 28.9677 144.794 29.5024 144.433 29.8964C144.072 30.2623 143.558 30.4452 142.891 30.4452C142.197 30.4452 141.669 30.2623 141.308 29.8964C140.947 29.5024 140.766 28.9677 140.766 28.2922V17.6961C140.766 15.9231 140.419 14.6285 139.725 13.8123C139.058 12.9961 138.003 12.5881 136.558 12.5881C134.864 12.5881 133.503 13.1228 132.475 14.1922C131.475 15.2617 130.975 16.697 130.975 18.4982V28.2922C130.975 29.7276 130.266 30.4452 128.85 30.4452Z" fill="#6D47F1"/>
<path d="M152.024 30.403C151.357 30.403 150.843 30.206 150.482 29.812C150.121 29.3899 149.94 28.8129 149.94 28.0812V11.6171C149.94 10.8854 150.121 10.3225 150.482 9.92847C150.843 9.53446 151.357 9.33745 152.024 9.33745C152.69 9.33745 153.204 9.53446 153.565 9.92847C153.954 10.3225 154.149 10.8854 154.149 11.6171V28.0812C154.149 28.8129 153.968 29.3899 153.607 29.812C153.246 30.206 152.718 30.403 152.024 30.403ZM152.024 4.94704C151.19 4.94704 150.537 4.73596 150.065 4.3138C149.621 3.89165 149.399 3.30063 149.399 2.54075C149.399 1.75272 149.621 1.1617 150.065 0.767693C150.537 0.345538 151.19 0.13446 152.024 0.13446C152.857 0.13446 153.496 0.345538 153.94 0.767693C154.412 1.1617 154.649 1.75272 154.649 2.54075C154.649 3.30063 154.412 3.89165 153.94 4.3138C153.496 4.73596 152.857 4.94704 152.024 4.94704Z" fill="#6D47F1"/>
<path d="M168.197 30.5297C166.114 30.5297 164.308 30.0934 162.78 29.221C161.28 28.3204 160.114 27.068 159.28 25.4638C158.447 23.8315 158.03 21.9177 158.03 19.7225C158.03 18.0901 158.267 16.6267 158.739 15.3321C159.211 14.0093 159.878 12.8976 160.739 11.997C161.628 11.0964 162.697 10.4069 163.947 9.92847C165.225 9.42189 166.642 9.16859 168.197 9.16859C169.169 9.16859 170.183 9.32338 171.239 9.63296C172.322 9.9144 173.322 10.3928 174.239 11.0683C174.6 11.2934 174.822 11.5749 174.905 11.9126C175.017 12.2222 175.03 12.5458 174.947 12.8836C174.892 13.2213 174.739 13.5168 174.489 13.7701C174.267 13.9952 173.989 14.136 173.655 14.1922C173.322 14.2204 172.961 14.1219 172.572 13.8967C171.905 13.4183 171.225 13.0806 170.53 12.8836C169.836 12.6584 169.169 12.5458 168.53 12.5458C167.53 12.5458 166.642 12.7147 165.864 13.0524C165.114 13.362 164.475 13.8264 163.947 14.4455C163.419 15.0366 163.017 15.7824 162.739 16.683C162.489 17.5836 162.364 18.6108 162.364 19.7647C162.364 22.0725 162.892 23.8878 163.947 25.2105C165.03 26.5051 166.558 27.1524 168.53 27.1524C169.169 27.1524 169.836 27.0539 170.53 26.8569C171.225 26.6599 171.905 26.3222 172.572 25.8437C172.961 25.6186 173.322 25.5342 173.655 25.5905C173.989 25.6467 174.253 25.8015 174.447 26.0548C174.669 26.28 174.808 26.5614 174.864 26.8991C174.947 27.2087 174.933 27.5324 174.822 27.8701C174.711 28.2078 174.475 28.4893 174.114 28.7144C173.225 29.3617 172.253 29.8261 171.197 30.1075C170.169 30.389 169.169 30.5297 168.197 30.5297Z" fill="#6D47F1"/>
</svg>
